<?xml version="1.0" standalone="no"?>
<!DOCTYPE svg PUBLIC "-//W3C//DTD SVG 20010904//EN"
 "http://www.w3.org/TR/2001/REC-SVG-20010904/DTD/svg10.dtd">
<svg version="1.0" xmlns="http://www.w3.org/2000/svg"
 width="488.000000pt" height="306.000000pt" viewBox="0 0 488.000000 306.000000"
 preserveAspectRatio="xMidYMid meet">
<metadata>
Created by potrace 1.16, written by Peter Selinger 2001-2019
</metadata>
<g transform="translate(0.000000,306.000000) scale(0.100000,-0.100000)"
fill="#000000" stroke="none">
<path d="M1 2990 l-2 -68 40 5 c42 6 60 -6 104 -67 10 -14 15 -19 12 -12 -3 6
-1 12 6 12 7 0 5 8 -7 21 l-19 22 35 -18 c19 -9 50 -31 68 -48 l32 -31 0 41
c0 61 -7 73 -45 73 -48 0 -86 17 -92 41 -5 18 -11 20 -54 14 -65 -9 -67 15 -5
39 25 9 50 24 57 32 10 12 2 14 -58 13 l-70 -1 -2 -68z"/>
<path d="M193 3042 c9 -10 44 -32 77 -48 36 -17 58 -34 55 -41 -2 -7 1 -13 8
-14 7 0 3 -4 -8 -9 -19 -8 -19 -9 -1 -9 18 -1 18 -2 -2 -20 -12 -10 -22 -26
-22 -35 0 -9 -5 -16 -11 -16 -8 0 -8 -5 1 -15 9 -10 9 -15 1 -15 -6 0 -11 -4
-11 -9 0 -5 10 -7 23 -5 12 2 16 2 10 -2 -7 -3 -13 -10 -13 -15 0 -6 3 -8 8
-5 4 2 9 -20 10 -50 5 -84 -13 -120 -34 -71 -6 12 -9 17 -7 10 1 -7 -2 -15 -8
-18 -5 -4 -9 -3 -8 2 3 19 -2 34 -10 29 -4 -3 -6 -17 -3 -31 2 -14 -1 -32 -8
-40 -9 -11 -9 -15 -1 -15 7 0 11 -6 10 -12 -2 -13 3 -29 26 -83 7 -16 16 -49
20 -73 4 -24 12 -45 18 -48 7 -2 13 -14 13 -27 1 -12 16 -38 33 -56 26 -28 31
-40 26 -63 -5 -21 -3 -28 9 -28 10 0 16 -9 16 -25 0 -14 7 -28 16 -32 9 -3 15
-16 14 -32 -3 -39 -1 -51 9 -51 4 0 7 11 6 25 -2 14 1 25 6 25 5 0 9 -9 9 -19
0 -11 9 -23 20 -26 12 -4 20 -15 20 -28 0 -18 2 -19 10 -7 6 10 10 11 10 3 0
-7 11 -13 24 -13 26 0 23 -30 42 332 3 66 10 116 15 112 5 -3 9 2 9 10 0 20 7
20 27 0 13 -12 13 -20 4 -40 -6 -14 -11 -34 -11 -45 0 -11 -4 -17 -10 -14 -6
4 -10 -6 -9 -22 0 -23 2 -25 8 -9 15 38 17 -8 20 -329 1 -176 4 -321 5 -323 2
-1 6 276 10 615 8 602 10 644 38 627 9 -6 38 48 38 71 0 11 11 15 40 15 22 0
40 -4 40 -8 0 -17 -25 -32 -52 -32 -15 0 -28 -4 -28 -9 0 -5 -2 -16 -5 -24 -5
-12 10 -14 90 -11 54 1 140 -1 193 -5 116 -9 161 0 92 19 -122 32 -158 40
-190 42 -27 2 -35 8 -40 28 -5 23 -11 25 -64 28 -41 2 -62 -1 -67 -10 -7 -10
-9 -10 -9 0 0 9 -47 12 -200 12 -155 0 -198 -3 -195 -12 3 -7 1 -19 -4 -26 -6
-11 -19 -8 -61 12 -30 14 -65 26 -78 26 -24 0 -24 -1 -9 -18z"/>
<path d="M890 3039 c0 -13 4 -18 12 -13 15 9 76 10 1048 19 454 4 827 9 829
11 3 3 -421 4 -942 4 -941 -1 -947 -1 -947 -21z"/>
<path d="M4040 3051 c-8 -6 -18 -7 -22 -5 -4 3 -8 1 -8 -4 0 -4 -21 -9 -47
-11 -27 -1 -77 -6 -113 -12 -36 -5 -265 -12 -510 -15 -625 -7 -2037 -7 -2049
0 -5 4 -12 2 -16 -4 -3 -6 2 -13 12 -17 10 -3 26 -13 37 -22 16 -14 147 -16
1385 -16 1208 0 1366 -2 1366 -15 0 -13 -45 -16 -320 -20 l-320 -6 323 1 322
0 0 -50 c0 -84 29 -1093 40 -1375 12 -335 13 -369 0 -350 -5 8 -10 75 -10 148
l0 132 -291 0 c-191 0 -288 -3 -284 -10 3 -5 -1 -10 -9 -10 -9 0 -15 3 -15 7
4 23 -2 43 -11 38 -6 -4 -8 -15 -5 -26 6 -19 2 -20 -96 -17 l-102 3 -4 110
c-2 61 -8 292 -15 515 -6 223 -13 452 -14 509 -3 71 1 123 12 165 18 71 68
160 98 175 14 6 16 10 6 10 -15 0 -72 -28 -57 -29 4 0 -1 -8 -10 -18 -10 -11
-21 -17 -24 -16 -3 2 -17 -9 -30 -24 -54 -64 -54 -61 -55 -320 -1 -133 -4
-245 -7 -249 -4 -3 -11 6 -17 21 -13 34 -13 46 0 26 8 -12 10 -9 10 12 0 14
-6 29 -12 31 -10 4 -10 6 0 6 18 1 16 81 -2 81 -8 0 -17 8 -20 18 -10 34 -24
243 -26 385 0 20 -4 37 -10 37 -5 0 -11 -17 -12 -37 -1 -37 -1 -37 -5 -5 -5
40 -5 40 -128 22 -44 -6 -151 -13 -237 -16 l-156 -5 -5 23 c-4 21 -4 20 -6 -4
-1 -25 -5 -28 -36 -28 -33 0 -34 2 -29 29 5 25 3 29 -20 33 -14 3 -34 -1 -43
-8 -11 -8 -13 -13 -5 -14 7 0 4 -8 -8 -20 -23 -23 -36 -25 -46 -8 -4 7 -3 8 5
4 19 -12 25 24 7 42 -12 12 -19 13 -27 5 -6 -6 -17 -10 -23 -9 -6 2 -8 1 -4
-1 4 -2 4 -11 1 -19 -3 -8 -1 -14 5 -14 5 0 12 9 15 20 6 24 22 26 31 4 3 -8
2 -12 -4 -9 -6 3 -13 -1 -16 -9 -10 -26 -41 -19 -53 12 l-11 27 4 -28 3 -28
-156 6 c-86 4 -173 8 -193 9 -21 0 -37 -1 -36 -4 3 -10 -23 -50 -32 -50 -6 0
-10 18 -10 41 0 24 -4 38 -10 34 -6 -4 -10 -58 -10 -131 0 -85 -4 -124 -11
-124 -8 0 -8 -4 -2 -12 12 -17 17 -195 5 -202 -5 -3 -7 -45 -5 -93 6 -128 7
-219 5 -295 -2 -56 -5 -68 -21 -73 -21 -6 -29 -28 -23 -61 3 -16 9 -20 25 -17
21 4 21 3 -2 -10 l-23 -14 32 -1 c18 0 38 -6 44 -13 6 -7 6 -9 1 -6 -6 3 -11
-3 -11 -13 0 -14 4 -16 17 -9 15 7 29 -5 29 -26 0 -16 -35 -34 -56 -29 -14 4
-24 2 -24 -5 0 -6 6 -8 14 -5 8 3 19 -3 26 -16 6 -11 16 -17 22 -14 7 5 9 2 5
-9 -3 -9 2 -26 12 -39 10 -13 16 -29 13 -37 -3 -10 0 -12 13 -7 15 5 16 4 5
-9 -8 -9 -14 -26 -16 -38 -2 -20 2 -22 42 -18 41 3 61 -11 32 -22 -7 -3 -3 -6
9 -6 30 -1 54 -12 48 -21 -3 -5 -17 -6 -31 -4 -24 4 -26 2 -20 -20 6 -23 2
-26 -30 -32 -26 -5 -39 -3 -46 7 -7 10 -11 11 -14 3 -3 -7 -14 -9 -26 -6 -14
3 -19 1 -14 -6 4 -7 2 -12 -5 -12 -6 0 -9 8 -6 20 3 11 2 20 -2 20 -13 0 -29
-22 -25 -35 3 -8 -4 -10 -24 -7 -27 4 -30 8 -34 50 -3 40 -2 237 2 407 5 206
-2 846 -9 873 -11 37 -75 114 -87 104 -4 -4 -5 0 -2 9 4 10 -3 19 -23 26 -38
15 -43 3 -12 -27 29 -27 54 -78 62 -125 11 -64 -1 -1310 -13 -1322 -2 -2 -151
-4 -330 -3 -318 0 -326 0 -315 -18 10 -16 8 -28 -8 -63 -45 -95 -52 -141 -29
-165 13 -12 12 -18 -1 -45 -12 -25 -13 -33 -3 -42 10 -9 11 -9 5 2 -6 10 -4
12 5 6 10 -6 10 -10 -2 -19 -13 -9 -13 -13 -2 -23 10 -10 14 -10 17 0 4 9 6 9
6 0 1 -20 73 -16 138 8 40 15 75 38 111 74 l52 52 0 -208 c0 -200 4 -244 19
-234 4 2 294 5 645 5 547 2 635 4 625 16 -14 17 -41 18 -58 2 -11 -10 -14 -10
-18 0 -6 15 -103 17 -103 1 0 -10 -568 -9 -940 2 -53 2 -101 0 -107 -4 -6 -4
-15 -2 -19 4 -4 8 -9 7 -15 -2 -5 -8 -9 48 -9 135 l0 148 25 -4 c21 -4 24 -2
19 16 -5 20 -1 22 34 24 22 2 53 6 69 11 18 5 37 5 47 -1 13 -7 21 -5 31 9 13
17 14 17 28 -1 10 -13 16 -16 21 -7 4 6 12 8 18 5 7 -5 8 -2 3 5 -4 8 4 24 21
42 l28 29 -25 1 c-20 1 -21 2 -4 6 11 3 23 10 27 17 5 8 13 7 29 -2 18 -12 23
-12 30 -1 6 11 11 11 21 1 6 -6 28 -12 48 -13 25 -1 29 -3 15 -7 -29 -10 -29
-30 -1 -25 13 3 27 0 30 -6 4 -6 1 -9 -7 -5 -8 3 -20 -2 -27 -12 -12 -14 -12
-16 6 -12 12 1 28 -3 37 -11 10 -7 18 -10 18 -5 1 5 2 16 3 24 0 8 9 16 19 18
16 3 18 -1 12 -27 -7 -32 2 -40 23 -19 9 9 12 9 12 0 0 -7 7 -12 16 -12 8 0
12 -5 8 -11 -3 -6 0 -15 7 -20 10 -6 11 -9 2 -9 -7 0 -13 -5 -13 -11 0 -7 14
-10 35 -7 24 3 35 0 35 -9 0 -18 19 -16 27 3 3 9 0 20 -8 25 -8 5 -9 9 -3 9 9
0 11 21 5 49 -1 2 -10 -4 -21 -14 -20 -19 -28 -41 -10 -30 6 3 10 1 10 -4 0
-15 -30 -14 -31 2 -1 6 -1 21 0 32 1 14 -1 16 -7 7 -7 -10 -13 -9 -28 5 -31
27 -37 53 -14 53 31 0 33 18 3 23 -21 4 -20 4 7 3 27 -1 34 -5 32 -19 -4 -25
17 -21 44 9 27 28 46 24 43 -9 -3 -48 1 -67 17 -67 27 0 54 20 47 35 -4 12 -8
13 -19 4 -12 -10 -13 -9 -8 5 3 9 15 16 25 16 17 0 23 -12 22 -47 0 -6 6 -9
13 -6 8 3 14 9 14 14 0 4 8 5 18 2 14 -6 15 -4 4 9 -13 17 -1 35 17 24 5 -3
11 3 14 13 2 11 15 21 28 23 33 5 35 26 2 31 -15 2 35 4 112 4 77 0 128 -2
113 -4 -16 -2 -28 -9 -28 -14 0 -6 4 -7 10 -4 7 4 7 -3 0 -19 -10 -27 0 -69
19 -81 20 -12 25 27 6 41 -18 13 -17 14 8 14 20 0 27 -5 27 -19 0 -10 7 -22
16 -25 14 -5 15 -4 4 9 -7 8 -9 15 -6 15 4 0 2 9 -4 20 -9 16 -8 20 5 20 8 0
15 -4 15 -9 0 -5 7 -12 16 -15 8 -3 12 -2 9 4 -3 6 2 10 12 10 15 0 16 2 3 10
-11 7 1 10 39 10 35 0 60 -5 71 -15 16 -14 18 -14 23 5 4 15 0 20 -13 20 -11
0 -22 5 -26 11 -5 8 -9 8 -14 -1 -5 -9 -20 -10 -51 -4 -28 5 -37 9 -24 12 11
2 25 8 31 13 6 5 22 7 35 5 13 -3 42 -5 64 -5 28 -1 36 -4 26 -10 -11 -7 -9
-10 10 -13 16 -2 25 -11 27 -25 2 -13 6 -23 10 -23 10 0 32 52 26 61 -3 5 -1
9 4 9 6 0 13 -7 16 -16 8 -22 8 -26 -4 -19 -16 10 -11 -8 8 -31 23 -28 51 -37
69 -22 11 9 16 9 22 -1 7 -10 13 -10 29 -2 16 8 20 18 17 42 -4 30 -3 31 10
13 8 -10 15 -29 15 -41 0 -17 4 -21 17 -16 10 4 14 2 9 -5 -3 -6 -2 -13 4 -17
5 -3 10 1 10 9 0 11 10 16 33 16 37 0 62 13 53 28 -3 6 -1 14 5 18 8 4 9 3 5
-4 -4 -7 -2 -12 3 -12 6 0 11 7 11 15 0 26 15 16 16 -10 2 -29 22 -57 35 -49
5 3 7 10 3 15 -3 5 -9 7 -13 4 -9 -5 -5 51 5 67 9 14 24 -11 24 -39 0 -16 4
-21 15 -17 9 4 15 0 15 -9 0 -9 6 -19 13 -23 6 -4 9 -4 5 1 -12 13 12 47 29
41 11 -4 13 -2 9 9 -3 8 -2 15 3 15 5 0 16 -18 25 -41 23 -58 61 -94 48 -47
-5 20 -4 21 11 9 9 -7 15 -17 12 -21 -3 -4 2 -10 10 -14 12 -4 15 4 15 39 0
24 -4 47 -10 50 -5 3 -10 19 -10 35 0 16 5 32 10 35 15 9 12 25 -5 25 -8 0
-15 -8 -15 -17 0 -15 -2 -16 -10 -3 -17 27 -12 60 9 60 16 0 21 8 24 43 3 36
4 34 5 -15 2 -58 13 -73 30 -42 7 13 11 14 17 4 4 -7 3 -15 -3 -19 -22 -14
-39 -85 -34 -144 4 -55 21 -80 23 -34 1 31 9 81 15 86 2 2 4 -92 5 -210 1
-163 3 -204 11 -174 6 24 7 121 3 247 l-6 207 68 -68 c74 -74 138 -106 236
-117 58 -7 151 8 201 31 28 13 32 20 28 42 -3 18 -1 24 7 19 6 -4 8 -12 5 -18
-5 -7 -2 -8 7 -2 7 4 28 7 45 5 19 -1 33 3 36 11 9 24 -22 1357 -41 1733 -5
94 -7 180 -5 193 4 21 1 22 -48 22 -29 0 -60 -4 -68 -9z m-1756 -648 c3 -190
5 -347 4 -349 -2 -1 -92 -4 -201 -6 l-197 -3 0 353 0 352 193 0 194 0 7 -347z
m368 330 c10 -9 18 -11 18 -5 0 6 -6 13 -12 15 -7 3 -1 6 15 6 l27 1 0 -72 c0
-72 -1 -73 -18 -50 -20 25 -32 20 -31 -12 0 -20 1 -20 8 -2 7 19 8 19 13 -2 6
-22 -4 -27 -39 -23 -7 1 -15 -10 -19 -24 -8 -33 -23 -32 -16 1 4 23 2 25 -17
19 -17 -5 -21 -2 -20 17 0 13 3 17 6 11 9 -23 33 -14 33 12 0 14 -4 25 -8 25
-12 0 -9 84 3 92 16 12 37 9 57 -9z m352 -27 c9 -19 16 -51 16 -71 0 -33 2
-36 23 -29 24 7 37 22 37 41 0 22 23 62 31 57 5 -3 9 -67 9 -142 -1 -101 -3
-132 -11 -119 -15 25 -39 4 -31 -26 5 -19 4 -20 -11 -8 -14 11 -18 11 -23 -3
-3 -9 -12 -16 -19 -16 -7 0 -15 -7 -19 -15 -5 -14 -2 -14 23 -1 27 15 28 14
23 -10 -2 -13 -11 -24 -18 -24 -8 0 -14 -8 -14 -18 0 -16 -10 -18 -80 -19 -47
0 -80 4 -80 9 0 6 -7 5 -15 -2 -14 -12 -13 -16 12 -42 22 -23 35 -28 68 -27
47 2 67 -2 78 -16 5 -6 18 2 35 21 24 28 61 54 76 54 11 0 -21 -47 -54 -81
-49 -49 -52 -80 -4 -44 33 25 39 16 9 -15 -16 -16 -36 -30 -44 -30 -14 0 -14
-2 -2 -9 9 -6 22 -6 34 1 14 7 17 7 13 -1 -5 -7 4 -11 23 -11 24 0 31 -4 31
-20 0 -20 -4 -20 -94 -14 -102 7 -187 -2 -151 -16 13 -6 -10 -9 -62 -9 l-83
-1 -1 193 c-1 105 -2 228 -3 272 0 44 1 110 3 147 l4 67 96 -5 c54 -3 107 -1
121 5 36 14 36 14 54 -23z m449 -1335 c29 -1 38 -18 10 -18 -75 1 -88 -3 -89
-26 -2 -32 30 -33 51 -1 25 38 35 28 17 -18 -12 -31 -13 -43 -4 -46 7 -2 12
-12 12 -23 0 -14 -7 -19 -30 -19 -20 0 -30 5 -30 15 0 10 -10 15 -30 15 -20 0
-30 -5 -30 -15 0 -13 -33 -15 -227 -16 -126 -1 -239 -3 -253 -5 -19 -2 -981
-5 -1373 -4 l-58 0 5 65 c3 36 8 69 11 75 4 7 46 10 108 9 56 -1 150 2 210 6
78 6 107 5 107 -3 0 -7 15 -12 35 -12 19 0 35 4 35 10 0 11 1342 21 1523 11z"/>
<path d="M2943 2533 c-25 -26 -37 -33 -42 -24 -6 9 -10 8 -15 -5 -8 -20 2 -56
14 -49 4 3 10 -8 13 -23 7 -35 0 -41 -12 -11 -9 22 -10 21 -10 -11 -1 -23 2
-30 8 -22 4 8 12 14 17 13 5 0 8 13 6 30 -1 19 3 29 12 29 15 0 26 -21 26 -49
0 -10 6 -18 13 -18 11 0 11 6 -1 29 -8 16 -11 32 -8 36 4 3 9 -4 13 -16 3 -12
9 -19 14 -17 4 3 5 13 2 22 -4 11 -3 14 6 9 6 -4 9 -16 6 -27 -4 -12 -2 -19 7
-19 26 0 41 19 44 56 1 22 -1 32 -5 25 -6 -9 -10 -7 -13 7 -4 15 -2 19 8 15 8
-3 14 0 14 6 0 6 -4 11 -10 11 -5 0 -10 6 -10 14 0 12 -28 25 -54 26 -5 0 -24
-16 -43 -37z"/>
<path d="M2469 1315 c-1 -24 -3 -31 -6 -17 -4 21 -9 22 -99 22 -53 0 -104 4
-114 10 -13 7 -22 6 -33 -4 -16 -16 -115 -25 -121 -11 -3 6 -8 0 -11 -12 -4
-13 -12 -23 -19 -23 -6 -1 0 -7 14 -15 25 -15 174 -20 195 -6 14 8 64 7 58 -1
-5 -9 21 -11 30 -2 6 6 69 7 218 4 37 -1 93 2 125 6 53 7 56 9 25 14 -27 4
-35 10 -38 29 -4 31 -11 37 -24 24 -8 -8 -22 -8 -47 -1 -20 6 -60 8 -89 5 -35
-4 -53 -2 -57 6 -2 7 -5 -6 -7 -28z"/>
<path d="M3020 1340 c0 -6 -28 -10 -64 -10 -58 0 -65 -2 -72 -22 -4 -13 -11
-26 -17 -30 -24 -15 52 -20 233 -16 179 4 233 11 182 25 -18 4 -20 8 -11 19 6
8 8 14 3 14 -5 0 0 7 10 15 19 15 19 15 -3 15 -12 0 -35 -7 -50 -15 -16 -8
-31 -11 -35 -8 -3 4 -6 1 -6 -5 0 -15 -56 -16 -65 -2 -4 6 -10 8 -15 5 -4 -3
-10 2 -14 10 -6 17 -76 21 -76 5z"/>
<path d="M4674 3008 c3 -29 6 -83 6 -120 0 -66 1 -68 25 -68 14 0 59 10 100
22 l75 22 0 98 0 98 -80 0 c-44 0 -80 -3 -80 -6 0 -14 41 -72 55 -78 16 -6 21
-56 6 -56 -5 0 -7 10 -4 23 4 22 4 22 -12 2 l-17 -20 2 20 c4 38 -1 52 -10 30
-7 -17 -9 -17 -9 -2 -1 9 -6 17 -12 17 -6 0 -9 9 -6 20 3 11 1 18 -4 14 -5 -3
-9 4 -9 15 0 13 -7 21 -16 21 -14 0 -16 -8 -10 -52z"/>
<path d="M3767 2847 c23 -21 54 -64 69 -93 l27 -54 13 -458 c7 -251 13 -489
14 -528 l0 -70 -110 4 -110 5 0 -34 c0 -19 -3 -50 -6 -70 -5 -32 -9 -35 -31
-31 -23 4 -24 2 -21 -29 l3 -34 186 -3 186 -2 6 52 c3 29 9 74 13 100 l7 47
-46 -2 c-26 -1 -48 1 -51 3 -2 3 -8 181 -11 395 -4 215 -10 490 -14 613 l-6
223 -80 3 -81 2 43 -39z"/>
<path d="M767 2853 c-2 -5 -6 -267 -8 -583 l-4 -575 59 1 c45 1 62 5 73 19 7
11 13 23 13 29 0 5 -6 2 -13 -8 -25 -34 -50 -12 -71 61 -18 62 -19 100 -17
565 2 435 0 498 -13 498 -8 0 -17 -3 -19 -7z"/>
<path d="M1112 2155 c0 -419 3 -705 8 -705 6 0 11 257 12 628 l3 627 28 55
c16 30 38 65 49 78 l21 22 -60 0 -61 0 0 -705z"/>
<path d="M0 2756 c0 -67 14 -177 25 -194 1 -1 9 0 18 4 23 9 51 87 42 121 -3
15 -20 45 -36 67 -16 22 -29 48 -29 57 0 10 -4 21 -10 24 -6 4 -10 -25 -10
-79z"/>
<path d="M3396 2762 l-38 -3 4 -354 c2 -195 7 -357 10 -360 7 -7 375 -8 387
-1 5 4 12 0 14 -6 3 -7 6 80 6 194 1 113 4 214 8 224 4 12 3 15 -5 10 -9 -5
-12 32 -12 149 l0 156 -167 -3 c-93 -2 -185 -4 -207 -6z m246 -113 c18 -10 20
-17 14 -62 -4 -29 -14 -65 -21 -81 -8 -16 -12 -32 -10 -36 3 -5 -1 -11 -7 -13
-7 -3 -3 -6 10 -6 15 -1 27 -12 39 -35 20 -42 12 -66 -22 -66 -14 0 -25 -4
-25 -10 0 -5 6 -10 14 -10 8 0 17 -8 19 -17 4 -14 5 -12 6 5 1 15 7 22 20 22
28 0 30 -7 19 -80 -6 -43 -16 -71 -29 -82 -11 -10 -19 -30 -20 -50 0 -32 -17
-86 -18 -60 -1 8 -19 12 -56 12 -37 0 -55 -4 -55 -12 0 -9 -4 -8 -10 2 -5 8
-10 33 -10 55 0 32 -5 42 -22 50 -37 16 -52 165 -18 165 6 0 15 -10 20 -22 7
-18 9 -19 9 -5 1 9 9 17 19 18 10 0 4 6 -15 15 -18 8 -33 18 -33 23 0 21 22
67 37 79 15 11 16 17 3 60 -23 82 -25 124 -4 139 22 16 117 17 146 2z"/>
<path d="M4480 2465 l0 -95 195 0 195 0 0 54 c0 48 -2 54 -23 58 -13 2 -28 -1
-35 -8 -17 -18 -15 -24 8 -24 11 0 20 -4 20 -10 0 -14 -43 -13 -57 1 -9 9 -14
5 -19 -15 -3 -14 -10 -26 -15 -26 -12 0 -11 47 1 55 6 3 10 9 10 13 0 10 -44
10 -51 0 -3 -4 -28 -9 -57 -10 -52 -2 -52 -3 -52 -35 0 -33 0 -33 -50 -33
l-50 0 0 75 0 75 50 0 c48 0 50 -1 50 -28 0 -26 3 -28 48 -30 54 -3 92 13 92
39 0 23 17 33 27 16 13 -22 42 -34 74 -29 23 3 29 9 29 28 l0 24 -195 0 -195
0 0 -95z"/>
<path d="M309 2089 c-9 -9 -21 -14 -25 -11 -4 4 -4 1 1 -7 4 -8 2 -17 -6 -21
-10 -7 -10 -12 -1 -23 7 -7 9 -17 5 -20 -3 -4 1 -7 11 -7 9 0 14 -4 11 -10 -5
-9 9 -14 18 -7 2 1 12 -5 22 -13 11 -8 16 -10 12 -4 -4 7 0 14 8 18 8 3 17 1
20 -4 23 -38 64 36 46 83 -16 41 -91 57 -122 26z"/>
<path d="M14 1863 c3 -7 1 -13 -4 -13 -6 0 -9 -230 -7 -612 1 -467 5 -612 14
-611 6 2 15 -6 18 -17 4 -11 10 -20 15 -20 5 0 4 14 -1 30 -6 17 -15 30 -20
30 -5 0 -9 5 -9 12 0 6 10 2 23 -10 13 -12 26 -22 29 -22 9 0 4 34 -7 43 -5 4
2 5 18 1 23 -5 27 -3 27 15 0 17 4 20 30 15 26 -6 30 -4 30 15 0 11 6 21 13
21 6 0 19 15 26 33 19 41 38 60 53 52 7 -4 5 0 -5 8 -18 15 -18 16 5 19 16 2
23 10 23 24 1 31 22 53 46 47 15 -4 18 -2 13 11 -4 11 -13 15 -23 11 -12 -5
-13 -4 -4 6 10 10 15 9 28 -1 10 -8 15 -9 15 -1 0 15 37 14 44 -1 4 -7 4 -3 2
10 -3 18 0 22 20 22 13 0 24 5 24 10 0 6 -7 10 -17 10 -9 0 -13 3 -10 6 4 4
41 8 83 11 83 4 94 7 94 29 0 9 -10 14 -27 14 -22 0 -25 2 -13 10 11 7 3 10
-30 11 -25 1 -52 2 -62 1 -9 -1 -19 5 -22 13 -3 10 1 15 14 15 23 0 37 20 21
30 -8 4 -1 12 20 20 28 12 29 15 13 21 -10 4 -23 3 -29 -2 -14 -13 -25 -11
-25 6 0 8 6 15 13 15 9 0 8 3 -2 9 -11 7 -10 10 4 18 16 9 16 10 -1 17 -16 6
-16 8 -4 16 8 5 26 7 40 4 16 -2 12 1 -10 10 -19 7 -39 11 -45 8 -5 -3 -2 4 8
15 21 24 22 33 2 33 -8 0 -15 5 -15 10 0 6 -8 10 -17 10 -15 0 -15 2 2 14 21
15 30 47 10 40 -7 -3 -16 -1 -20 5 -3 6 -17 11 -31 11 -15 0 -24 6 -24 15 0 8
-6 16 -12 16 -7 1 -17 2 -23 4 -5 1 -19 3 -30 4 -11 2 -15 5 -8 8 22 8 14 26
-9 20 -12 -4 -29 -1 -37 6 -12 9 -13 9 -7 0 4 -7 2 -13 -3 -13 -6 0 -11 9 -11
21 0 13 4 18 13 14 6 -4 5 -1 -4 7 -9 7 -15 21 -13 31 1 9 -2 15 -7 11 -5 -3
-7 -10 -4 -15 9 -13 -9 -11 -23 3 -14 14 -16 32 -3 23 5 -3 13 -1 16 5 4 6 -7
26 -24 46 -17 19 -32 46 -32 59 -2 41 -3 44 -24 59 l-20 15 20 2 c17 1 16 2
-5 9 -25 8 -25 8 5 10 18 1 23 4 12 7 -9 2 -15 9 -12 14 4 5 -3 9 -14 9 -12 0
-21 5 -21 10 0 6 -6 9 -13 8 -7 -2 -11 5 -9 15 3 15 -1 17 -20 11 -19 -6 -21
-5 -11 7 10 12 8 15 -8 15 -12 0 -18 -5 -15 -13z"/>
<path d="M754 1432 c-8 -5 -13 -143 -18 -457 -7 -538 -15 -745 -28 -745 -5 0
-17 -7 -25 -16 -13 -12 -13 -18 -4 -24 20 -12 51 -89 40 -96 -13 -8 -6 -29 9
-29 7 0 11 -4 10 -10 -2 -5 -7 -9 -11 -7 -4 1 -3 -6 2 -17 6 -10 7 -21 4 -25
-3 -3 768 -6 1715 -6 l1722 0 -7 33 c-3 17 -9 37 -14 42 -4 6 -7 54 -6 108 1
53 -1 97 -4 97 -3 0 -6 42 -5 94 1 52 -2 92 -6 90 -4 -3 -9 71 -11 163 -2 163
-3 160 -7 -72 l-4 -240 -6 160 c-5 149 -6 152 -8 51 -1 -60 -5 -106 -9 -102
-5 4 -11 89 -14 189 l-6 182 0 -223 c0 -122 -3 -225 -7 -229 -3 -3 -7 59 -8
138 l-2 144 -6 -170 c-4 -112 -6 -139 -8 -81 -2 106 -9 110 -13 9 -6 -126 -18
-64 -22 102 l-3 160 -4 -180 c-4 -169 -4 -174 -10 -80 l-6 100 -2 -99 c-1 -55
-5 -96 -9 -92 -5 4 -11 80 -14 169 l-6 162 1 -168 c1 -185 -11 -230 -17 -59
l-3 107 -3 -110 c-2 -106 -3 -109 -17 -75 -11 27 -13 29 -9 8 3 -15 1 -29 -5
-33 -6 -3 -11 36 -13 102 l-3 108 -3 -115 c-3 -89 -6 -105 -11 -70 l-7 45 -1
-42 c-1 -24 -6 -43 -12 -43 -6 0 -11 47 -12 118 l-2 117 -6 -120 c-4 -73 -7
-100 -10 -70 -3 43 -4 45 -7 15 -9 -79 -18 -58 -23 50 l-6 115 -4 -115 c-3
-98 -4 -107 -10 -60 l-7 55 -1 -52 c-1 -29 -6 -53 -12 -53 -6 0 -11 44 -12
108 l-2 107 -6 -110 c-5 -94 -6 -102 -11 -55 l-5 55 -2 -53 c-2 -44 -5 -52
-19 -50 -14 2 -19 16 -24 58 l-6 55 -1 -57 c-1 -32 -6 -58 -12 -58 -5 0 -7 8
-4 18 4 13 3 12 -8 -3 -12 -18 -14 -14 -19 40 l-6 60 -1 -57 c-1 -32 -6 -58
-12 -58 -5 0 -10 5 -10 10 0 10 -700 7 -1375 -5 -132 -2 -376 -4 -542 -5
l-303 0 -1 -27 c-2 -24 -2 -25 -6 -5 l-4 22 -270 0 c-208 0 -269 3 -269 13 0
8 -3 8 -9 -2 -7 -11 -10 -10 -14 5 -4 16 -5 17 -6 2 0 -10 -5 -18 -11 -18 -7
0 -10 167 -10 483 l0 482 21 -45 c20 -44 46 -80 58 -80 3 0 5 61 3 135 l-3
135 -45 0 c-36 0 -44 3 -44 19 0 12 11 22 33 29 29 9 29 10 7 11 -14 0 -30 -3
-36 -7z"/>
<path d="M2930 841 c0 -5 -24 -8 -52 -8 -46 2 -53 -1 -54 -18 -1 -19 7 -20
157 -23 87 -2 164 0 171 4 16 10 97 14 103 4 2 -4 46 -8 96 -8 82 -1 92 1 96
19 5 18 24 28 22 12 -3 -21 2 -33 15 -33 9 0 12 8 8 25 -2 14 -7 25 -11 26 -3
0 -51 0 -106 0 -183 0 -245 -4 -245 -15 0 -6 -5 -4 -10 5 -7 13 -19 15 -54 9
-24 -4 -51 -3 -58 1 -8 5 -27 2 -42 -7 -25 -13 -27 -12 -16 1 10 12 10 15 -4
15 -9 0 -16 -4 -16 -9z"/>
<path d="M1490 808 c0 -23 4 -28 24 -28 14 0 28 5 31 10 3 6 26 10 51 10 24 0
44 -4 44 -10 0 -14 48 -12 52 2 3 9 21 9 77 -1 53 -10 76 -10 84 -2 14 14 92
14 116 -1 11 -7 26 -8 37 -3 11 5 22 9 27 10 4 2 10 4 15 5 4 1 19 2 35 2 15
1 27 5 27 10 0 5 4 7 9 3 5 -3 12 -1 15 4 4 5 -21 9 -58 9 -35 0 -70 3 -77 8
-7 4 -14 3 -16 -2 -2 -5 -36 -8 -75 -6 -40 2 -151 4 -245 5 l-173 2 0 -27z"/>
<path d="M142 380 c-3 -8 -13 -20 -21 -27 -14 -11 -13 -12 7 -13 12 0 22 6 22
13 0 6 6 3 12 -7 7 -12 10 -69 9 -153 l-2 -133 161 0 160 0 0 155 c0 85 0 158
0 163 0 4 -77 9 -171 12 -147 4 -172 3 -177 -10z"/>
</g>
</svg>
